<mxfile host="app.diagrams.net" modified="2020-03-28T02:06:54.206Z" agent="Mozilla/5.0 (Windows NT 10.0; Win64; x64) AppleWebKit/537.36 (KHTML, like Gecko) Chrome/80.0.3987.149 Safari/537.36" etag="OGQB1rFlFz9xuFmz87RT" version="12.9.3" type="github">
  <diagram id="lYC8dwBlKHl0dTzJcayr" name="Page-1">
    <mxGraphModel dx="2062" dy="1154" grid="1" gridSize="10" guides="1" tooltips="1" connect="1" arrows="1" fold="1" page="1" pageScale="1" pageWidth="827" pageHeight="1169" math="0" shadow="0">
      <root>
        <mxCell id="0" />
        <mxCell id="1" parent="0" />
        <mxCell id="eTxBkfbAUIglNdTEwoIh-2" value="class B" style="rounded=1;whiteSpace=wrap;html=1;fontSize=16;fillColor=#fff2cc;strokeColor=#d6b656;" vertex="1" parent="1">
          <mxGeometry x="190" y="260" width="210" height="60" as="geometry" />
        </mxCell>
        <mxCell id="eTxBkfbAUIglNdTEwoIh-3" value="class C" style="rounded=1;whiteSpace=wrap;html=1;fontSize=16;fillColor=#dae8fc;strokeColor=#6c8ebf;" vertex="1" parent="1">
          <mxGeometry x="190" y="320" width="210" height="60" as="geometry" />
        </mxCell>
        <mxCell id="eTxBkfbAUIglNdTEwoIh-6" value="class A" style="rounded=1;whiteSpace=wrap;html=1;fontSize=16;fillColor=#f8cecc;strokeColor=#b85450;" vertex="1" parent="1">
          <mxGeometry x="510" y="230" width="210" height="60" as="geometry" />
        </mxCell>
        <mxCell id="eTxBkfbAUIglNdTEwoIh-9" style="edgeStyle=orthogonalEdgeStyle;rounded=0;orthogonalLoop=1;jettySize=auto;html=1;fontSize=16;" edge="1" parent="1" source="eTxBkfbAUIglNdTEwoIh-7" target="eTxBkfbAUIglNdTEwoIh-6">
          <mxGeometry relative="1" as="geometry" />
        </mxCell>
        <mxCell id="eTxBkfbAUIglNdTEwoIh-7" value="vptr" style="rounded=0;whiteSpace=wrap;html=1;fontSize=16;fillColor=#f5f5f5;strokeColor=#666666;fontColor=#333333;" vertex="1" parent="1">
          <mxGeometry x="190" y="380" width="210" height="30" as="geometry" />
        </mxCell>
      </root>
    </mxGraphModel>
  </diagram>
</mxfile>
